<svg width="18" height="30" viewBox="0 0 18 20" fill="none" xmlns="http://www.w3.org/2000/svg">
<g clip-path="url(#clip0)">
<path d="M9.0027 5.50781C6.44734 5.50781 4.38618 7.51172 4.38618 9.9961C4.38618 12.4805 6.44734 14.4844 9.0027 14.4844C11.5581 14.4844 13.6192 12.4805 13.6192 9.9961C13.6192 7.51172 11.5581 5.50781 9.0027 5.50781ZM9.0027 12.9141C7.35136 12.9141 6.00136 11.6055 6.00136 9.9961C6.00136 8.38672 7.34734 7.07813 9.0027 7.07813C10.6581 7.07813 12.004 8.38672 12.004 9.9961C12.004 11.6055 10.654 12.9141 9.0027 12.9141V12.9141ZM14.8848 5.32422C14.8848 5.90625 14.4027 6.3711 13.8081 6.3711C13.2094 6.3711 12.7313 5.90235 12.7313 5.32422C12.7313 4.74609 13.2134 4.27734 13.8081 4.27734C14.4027 4.27734 14.8848 4.74609 14.8848 5.32422ZM17.9424 6.38672C17.8741 4.98438 17.5447 3.74219 16.488 2.71875C15.4353 1.69531 14.1576 1.375 12.7152 1.30469C11.2286 1.22266 6.77279 1.22266 5.28618 1.30469C3.84779 1.37109 2.57011 1.69141 1.51341 2.71484C0.456716 3.73828 0.131269 4.98047 0.0589482 6.38282C-0.0254267 7.82813 -0.0254264 12.1602 0.0589488 13.6055C0.127252 15.0078 0.456717 16.25 1.51341 17.2734C2.57011 18.2969 3.84377 18.6172 5.28618 18.6875C6.77279 18.7695 11.2286 18.7695 12.7152 18.6875C14.1576 18.6211 15.4353 18.3008 16.488 17.2734C17.5406 16.25 17.8701 15.0078 17.9424 13.6055C18.0268 12.1602 18.0268 7.83203 17.9424 6.38672V6.38672ZM16.0219 15.1563C15.7085 15.9219 15.1018 16.5117 14.3103 16.8203C13.125 17.2774 10.3125 17.1719 9.0027 17.1719C7.69288 17.1719 4.87636 17.2734 3.69511 16.8203C2.90761 16.5156 2.30091 15.9258 1.9835 15.1563C1.51341 14.0039 1.6219 11.2695 1.62189 9.9961C1.62189 8.72266 1.51743 5.98438 1.9835 4.83594C2.29689 4.07031 2.90359 3.48047 3.69511 3.17188C4.88038 2.71484 7.69288 2.82031 9.0027 2.82031C10.3125 2.82031 13.129 2.71875 14.3103 3.17187C15.0978 3.47656 15.7045 4.06641 16.0219 4.83594C16.492 5.98828 16.3835 8.72266 16.3835 9.9961C16.3835 11.2695 16.492 14.0078 16.0219 15.1563Z" fill="#FC7FB2"/>
</g>
<defs>
<clipPath id="clip1">
<rect width="18" height="30" fill="white"/>
</clipPath>
</defs>
</svg>
