<svg width="18" height="20" viewBox="0 0 18 20" fill="none" xmlns="http://www.w3.org/2000/svg">
<g clip-path="url(#clip0)">
<path d="M16.0714 1.25L1.92857 1.25C1.41708 1.25 0.926543 1.44754 0.564865 1.79917C0.203188 2.15081 2.22557e-07 2.62772 3.02888e-07 3.125L2.52407e-06 16.875C2.6044e-06 17.3723 0.203191 17.8492 0.564868 18.2008C0.926545 18.5525 1.41708 18.75 1.92857 18.75L7.44308 18.75L7.44308 12.8004L4.91183 12.8004L4.91183 10L7.44308 10L7.44308 7.86562C7.44308 5.43789 8.92969 4.09687 11.2066 4.09687C12.2971 4.09687 13.4373 4.28594 13.4373 4.28594L13.4373 6.66875L12.1809 6.66875C10.943 6.66875 10.5569 7.41562 10.5569 8.18164L10.5569 10L13.3204 10L12.8784 12.8004L10.5569 12.8004L10.5569 18.75L16.0714 18.75C16.5829 18.75 17.0735 18.5525 17.4351 18.2008C17.7968 17.8492 18 17.3723 18 16.875L18 3.125C18 2.62772 17.7968 2.1508 17.4351 1.79917C17.0735 1.44754 16.5829 1.25 16.0714 1.25V1.25Z" fill="#FC7FB2"/>
</g>
<defs>
<clipPath id="clip0">
<rect width="18" height="20" fill="white"/>
</clipPath>
</defs>
</svg>
